#!OML:ASF F:\VICON\USERDATA\INSTALL\rory3\rory3.ASF
:FULLY-SPECIFIED
:DEGREES
2527
root 0.310941 16.2448 -0.578206 5.98228 0.367013 -2.24426
lowerback 11.6219 -0.61581 -0.681496
upperback 1.03325 -0.872256 0.556534
thorax -5.41724 -0.406991 1.1073
lowerneck -3.84497 -16.0119 -16.69
upperneck 7.51612 -22.7853 19.9992
head 7.22803 -10.8486 6.59207
rclavicle -7.05686e-015 -4.96962e-015
rhumerus -20.3148 26.3892 -86.1216
rradius 119.82
rwrist 22.8259
rhand 27.4366 8.03934
rfingers 7.12502
rthumb 51.3883 -12.4227
lclavicle -7.05686e-015 -4.96962e-015
lhumerus -16.88 -30.0527 85.2342
lradius 118.687
lwrist 0.768489
lhand 6.98644 34.7859
lfingers 7.12502
lthumb 32.2628 61.9388
rfemur -8.60175 15.8097 17.5958
rtibia 14.5157
rfoot -8.48305 -17.1898
rtoes -5.45558
lfemur -9.11487 -14.6387 -13.5283
ltibia 14.0177
lfoot -8.79574 13.6529
ltoes -10.6982
2528
root 0.307937 16.2441 -0.576681 5.91128 0.431376 -2.05629
lowerback 11.6396 -0.586899 -0.855877
upperback 0.963458 -0.858088 0.531019
thorax -5.49873 -0.395377 1.1777
lowerneck -4.51629 -15.4618 -16.3514
upperneck 7.97911 -21.9384 19.4727
head 7.2208 -10.4016 6.48563
rclavicle 1.39149e-014 -1.19271e-015
rhumerus -20.4861 26.318 -86.1906
rradius 119.901
rwrist 22.7993
rhand 27.5005 7.96186
rfingers 7.12502
rthumb 51.4464 -12.467
lclavicle 1.39149e-014 -1.19271e-015
lhumerus -17.0649 -30.0887 85.3488
lradius 118.689
lwrist 0.843327
lhand 6.71404 34.6251
lfingers 7.12502
lthumb 32.0035 61.8303
rfemur -8.60038 15.8276 17.4308
rtibia 14.7153
rfoot -8.66542 -17.2469
rtoes -5.4474
lfemur -8.94529 -14.7472 -13.7339
ltibia 13.7945
lfoot -8.718 13.6982
ltoes -10.484
2529
root 0.304236 16.2422 -0.575022 5.82447 0.505356 -1.57562
lowerback 11.6047 -0.545371 -1.35013
upperback 0.957012 -0.871757 0.442383
thorax -5.47976 -0.391605 1.36544
lowerneck -5.24375 -14.899 -15.9468
upperneck 8.36761 -21.0587 18.9245
head 7.19182 -9.93936 6.36159
rclavicle 9.14409e-015 -1.19271e-015
rhumerus -20.4778 26.2772 -86.1546
rradius 120.057
rwrist 22.6742
rhand 27.6646 7.79067
rfingers 7.12502
rthumb 51.5956 -12.5521
lclavicle 9.14409e-015 -1.19271e-015
lhumerus -16.8498 -30.215 85.26
lradius 118.778
lwrist 0.757645
lhand 5.70161 35.4799
lfingers 7.12502
lthumb 31.0389 62.8739
rfemur -8.61684 15.7788 16.9481
rtibia 14.9919
rfoot -8.86101 -17.3134
rtoes -5.55148
lfemur -8.70589 -14.8107 -14.2774
ltibia 13.4624
lfoot -8.47405 13.73
ltoes -10.3532
2530
root 0.302881 16.2414 -0.571484 5.76542 0.569004 -1.34805
lowerback 11.5137 -0.503678 -1.53191
upperback 0.938845 -0.840929 0.403706
thorax -5.44712 -0.372877 1.42137
lowerneck -5.84045 -14.3079 -15.5614
upperneck 8.62068 -20.1486 18.4433
head 7.11142 -9.47386 6.27323
rclavicle 5.36719e-015 -7.95139e-016
rhumerus -20.4971 26.2193 -86.1295
rradius 120.137
rwrist 22.6177
rhand 27.6616 7.71147
rfingers 7.12502
rthumb 51.5929 -12.6329
lclavicle 5.36719e-015 -7.95139e-016
lhumerus -16.7315 -30.477 85.2706
lradius 119.004
lwrist 0.681254
lhand 6.08038 36.1545
lfingers 7.12502
lthumb 31.3999 63.479
rfemur -8.66084 15.7322 16.7287
rtibia 15.2763
rfoot -9.05771 -17.3487
rtoes -5.66504
lfemur -8.46154 -14.836 -14.5513
ltibia 13.1042
lfoot -8.24371 13.7347
ltoes -10.7046
2531
root 0.302764 16.2412 -0.565946 5.72847 0.613165 -1.32309
lowerback 11.3955 -0.455162 -1.46621
upperback 0.905032 -0.766699 0.403388
thorax -5.42015 -0.338033 1.37082
lowerneck -6.41323 -13.6949 -15.2677
upperneck 8.94254 -19.2317 18.05
head 7.07542 -9.00426 6.22396
rclavicle 1.06847e-014 -5.36719e-015
rhumerus -20.6167 26.1368 -86.1458
rradius 120.16
rwrist 22.6252
rhand 27.5007 7.66112
rfingers 7.12502
rthumb 51.4466 -12.7676
lclavicle 1.06847e-014 -5.36719e-015
lhumerus -16.8214 -30.8488 85.4092
lradius 119.074
lwrist 0.988637
lhand 6.71345 36.0804
lfingers 7.12502
lthumb 32.0029 63.2857
rfemur -8.6779 15.7233 16.725
rtibia 15.4608
rfoot -9.16839 -17.3741
rtoes -5.68338
lfemur -8.27465 -14.8706 -14.5997
ltibia 12.8605
lfoot -8.13065 13.7563
ltoes -10.8147
2532
root 0.300985 16.2404 -0.562521 5.71508 0.634747 -1.31557
lowerback 11.2767 -0.390541 -1.40183
upperback 0.885797 -0.670498 0.417448
thorax -5.37784 -0.292418 1.33272
lowerneck -7.13438 -13.1007 -15.0204
upperneck 9.40391 -18.338 17.6377
head 7.12229 -8.53751 6.15791
rclavicle -4.91992e-015 9.93923e-016
rhumerus -20.7044 26.0395 -86.1205
rradius 120.239
rwrist 22.5793
rhand 27.4374 7.5949
rfingers 7.12502
rthumb 51.389 -12.8668
lclavicle -4.91992e-015 9.93923e-016
lhumerus -16.5936 -31.0465 85.3654
lradius 118.982
lwrist 1.19641
lhand 6.98435 35.6636
lfingers 7.12502
lthumb 32.2608 62.8169
rfemur -8.66005 15.7362 16.7341
rtibia 15.494
rfoot -9.1953 -17.391
rtoes -5.59367
lfemur -8.2179 -14.917 -14.5986
ltibia 12.8068
lfoot -8.16645 13.7348
ltoes -10.4752
2533
root 0.298757 16.2405 -0.56017 5.70778 0.664061 -1.40697
lowerback 11.1245 -0.32795 -1.26869
upperback 0.868213 -0.566286 0.465132
thorax -5.31545 -0.24423 1.28968
lowerneck -7.79189 -12.4831 -14.7121
upperneck 9.7975 -17.4124 17.1898
head 7.12828 -8.06303 6.07864
rclavicle 1.93815e-015 2.18663e-015
rhumerus -20.7576 25.9242 -86.1066
rradius 120.287
rwrist 22.5034
rhand 27.5364 7.70354
rfingers 7.12502
rthumb 51.479 -12.7066
lclavicle 1.93815e-015 2.18663e-015
lhumerus -16.3406 -31.0453 85.2935
lradius 118.989
lwrist 0.860534
lhand 7.10911 35.6922
lfingers 7.12502
lthumb 32.3795 62.8213
rfemur -8.61887 15.7594 16.8537
rtibia 15.4565
rfoot -9.1469 -17.4513
rtoes -5.75718
lfemur -8.21725 -14.9041 -14.4872
ltibia 12.8273
lfoot -8.15648 13.6957
ltoes -10.387
